<svg preserveAspectRatio="xMidYMid meet" data-bbox="0 0 952.5 124.8" viewBox="0 0 952.5 124.8" xmlns="http://www.w3.org/2000/svg" data-type="color" role="presentation" aria-hidden="true">
    <g>
      <path fill="#000" d="M704.7 0v124H680V0h24.7z" data-color="1"></path>
      <path fill="#000" d="M407.5 25v24.5h-.1v25h97.5V99h-97.4v25h97.4l24.7-25V49.5h-97.5V25h97.5V0h-97.5l-24.6 25z" data-color="1"></path>
      <path fill="#000" d="M272.4 25.8v49.5h97.5v24.5h-97.5v25h97.5l24.7-25V50.3h-97.5V25.8h97.5V.8h-97.5l-24.7 25z" data-color="1"></path>
      <path fill="#000" d="M541.6 25v24.5h24.7l-24.7 25V124h24.7v-.1h97.5v-25h-97.5V74.5h97.5v-25h-97.5V25h97.5V0h-97.5l-24.7 25z" data-color="1"></path>
      <path fill="#000" d="m160.9 0-24.7 25v99h24.7V75.3h47.4l25.4-25h-72.8V25h72.8v99h24.6V25L233.7 0h-72.8z" data-color="1"></path>
      <path fill="#000" d="M0 25h49.6v99.8h24.7V25h49.6V0H0v25z" data-color="1"></path>
      <path fill="#000" d="M952.5 25V0H828.6v25h49.6v24.5h-49.6v25h49.6v25.3h-49.6l24.7 25h74.6l24.6-25h-49.6V74.5h49.6v-25h-49.6V25h49.6z" data-color="1"></path>
    </g>
</svg>